<svg xmlns="http://www.w3.org/2000/svg" viewBox="0 0 800 800"><defs><style>.cls-1{fill:#25aae1;}</style></defs><title>USP - Payment</title><g id="Layer_2" data-name="Layer 2"><path class="cls-1" d="M659.17,55H390.53a90.07,90.07,0,0,0-90.07,90.06v54.66l-194,167a107.75,107.75,0,0,0-37.72,81.59V727.78a17.32,17.32,0,0,0,34.64,0V448.35a73.14,73.14,0,0,1,25.4-55.42l171.66-147.8V437.58l-97,97A17.42,17.42,0,0,0,228.1,559.2L406.69,379.84a49.52,49.52,0,0,1,11.55-8.47,53.1,53.1,0,0,1,43.1-3.07,50,50,0,0,1,16.17,81.59l-264,264a17.42,17.42,0,0,0,24.63,24.63l78.52-79.28c16.16,23.86,43.87,39.26,73.13,39.26H659.17a90.07,90.07,0,0,0,90.07-90.07h0V145.06A90.06,90.06,0,0,0,659.17,55ZM342,634.64,502.14,475.29A84.91,84.91,0,1,0,382.06,355.21l-47.73,47.73V145.06a55.43,55.43,0,0,1,55.43-55.42H572.19V663.89H390.53A55.43,55.43,0,0,1,342,634.64ZM714.6,607.69a55.43,55.43,0,0,1-55.43,55.43H606.83V89.64h52.34a55.43,55.43,0,0,1,55.43,55.42Z"/></g></svg>