<svg xmlns="http://www.w3.org/2000/svg" viewBox="0 0 800 800"><defs><style>.cls-1{fill:#25aae1;}</style></defs><title>USP - Products</title><g id="Layer_7" data-name="Layer 7"><path class="cls-1" d="M349,368H228.66A124.8,124.8,0,0,1,104,243.34V217.09C104,145.36,162.36,87,234.09,87h40.38c24.88,0,50.52,9.8,70.35,26.9,21.4,18.44,33.18,42.46,33.18,67.63V339A29,29,0,0,1,349,368ZM234.09,121A96.2,96.2,0,0,0,138,217.09v26.25A90.76,90.76,0,0,0,228.66,334H344V181.53c0-34.09-37.38-60.53-69.53-60.53Z"/><path class="cls-1" d="M378,466V623.47c0,25.17-11.78,49.19-33.18,67.63C325,708.2,299.35,718,274.47,718H234.09C162.36,718,104,659.64,104,587.91V561.66A124.8,124.8,0,0,1,228.66,437H349A29,29,0,0,1,378,466ZM274.47,684c32.15,0,69.53-26.44,69.53-60.53V471H228.66A90.76,90.76,0,0,0,138,561.66v26.25A96.2,96.2,0,0,0,234.09,684Z"/><path class="cls-1" d="M445,339V181.53c0-25.17,11.78-49.19,33.18-67.63C498,96.8,523.65,87,548.53,87h40.38C660.64,87,719,145.36,719,217.09v26.25A124.8,124.8,0,0,1,594.34,368H474A29,29,0,0,1,445,339ZM548.53,121C516.38,121,479,147.44,479,181.53V334H594.34A90.76,90.76,0,0,0,685,243.34V217.09A96.2,96.2,0,0,0,588.91,121Z"/><path class="cls-1" d="M474,437H594.34A124.8,124.8,0,0,1,719,561.66v26.25C719,659.64,660.64,718,588.91,718H548.53c-24.88,0-50.52-9.8-70.35-26.9C456.78,672.66,445,648.64,445,623.47V466A29,29,0,0,1,474,437ZM588.91,684A96.2,96.2,0,0,0,685,587.91V561.66A90.76,90.76,0,0,0,594.34,471H479V623.47c0,34.09,37.38,60.53,69.53,60.53Z"/></g></svg>