<?xml version="1.0" encoding="utf-8"?>
<!-- Generator: Adobe Illustrator 21.1.0, SVG Export Plug-In . SVG Version: 6.00 Build 0)  -->
<svg version="1.1" id="Layer_1" xmlns="http://www.w3.org/2000/svg" xmlns:xlink="http://www.w3.org/1999/xlink" x="0px" y="0px"
	 viewBox="0 0 331.2 151.4" style="enable-background:new 0 0 331.2 151.4;" xml:space="preserve">
<style type="text/css">
	.st0{fill:#00ACE6;}
	.st1{fill:none;stroke:#E5E5E5;stroke-width:3;stroke-dasharray:10,10;}
</style>
<path class="st0" d="M326.2,2.1c1.7,0,3,1.3,3,3v86c-6,0.7-10.6,5.8-10.6,11.9c0,6.1,4.6,11.2,10.6,11.9v31.4c0,1.7-1.3,3-3,3H5
	c-1.7,0-3-1.3-3-3V115c6.1-0.6,10.8-5.7,10.8-11.9c0-6.2-4.7-11.3-10.8-11.9v-86c0-1.7,1.3-3,3-3H326.2 M326.2,0.1H5
	c-2.8,0-5,2.2-5,5v88c0.3,0,0.5,0,0.8,0c5.5,0,10,4.5,10,10c0,5.5-4.5,10-10,10c-0.3,0-0.5,0-0.8,0v33.4c0,2.8,2.2,5,5,5h321.2
	c2.8,0,5-2.2,5-5v-33.4c-0.2,0-0.4,0-0.6,0c-5.5,0-10-4.5-10-10c0-5.5,4.5-10,10-10c0.2,0,0.4,0,0.6,0v-88
	C331.2,2.4,328.9,0.1,326.2,0.1L326.2,0.1z"/>
<line id="Line_4" class="st1" x1="14.6" y1="104.9" x2="316" y2="104.9"/>
</svg>
