<svg xmlns="http://www.w3.org/2000/svg" viewBox="0 0 800 800"><defs><style>.cls-1{fill:#25aae1;}</style></defs><title>USP - TrustworthySVG</title><g id="Layer_13" data-name="Layer 13"><path class="cls-1" d="M681.35,184.47l-.32-5.18-5.78-7.56c-12.38-16.23-22.16-29-36.59-39.29C624,122.06,605.58,115,576.94,108.88c-20.55-4.41-43.25-16.35-67.29-29C472.84,60.5,431.11,38.54,385.5,38.5h-.12c-45.61,0-87.34,22-124.15,41.38-24,12.65-46.74,24.59-67.29,29-28.64,6.13-47.1,13.18-61.72,23.56C117.79,142.68,108,155.5,95.63,171.73l-5.78,7.56-.32,5.18c-.29,4.76-6.86,118.46,14.12,277.26,5.19,39.29,23.25,79.12,53.68,118.39,23.73,30.62,55.07,61.06,93.16,90.46,64.3,49.65,125.1,79,127.66,80.25l7.49,2,7.09-2c2.56-1.23,63.36-30.6,127.66-80.25,38.09-29.4,69.43-59.84,93.16-90.46C644,540.85,662,501,667.23,461.73,688.21,302.93,681.64,189.23,681.35,184.47Zm-47.82,272.8C616,590.21,425.63,695.57,385.43,716.42c-40.2-20.83-230.5-126-248.08-259.15C119.28,320.4,122.22,215.4,123.23,191.61c23-30.11,30.3-39.3,77.83-49.49,25.13-5.38,49.84-18.39,76-32.16,35-18.4,71.15-37.44,108.38-37.46S458.84,91.56,493.82,110c26.16,13.77,50.87,26.78,76,32.16,47.53,10.19,54.86,19.38,77.84,49.49C648.67,215.38,651.63,320.2,633.53,457.27Z"/><polygon class="cls-1" points="356.8 433.47 262.68 343.88 222.59 385.99 360.06 516.85 569.53 283.63 526.27 244.78 356.8 433.47"/></g></svg>