<svg xmlns="http://www.w3.org/2000/svg" viewBox="0 0 800 800"><defs><style>.cls-1{fill:#25aae1;}</style></defs><title>USP - Payment_1</title><g id="Layer_5" data-name="Layer 5"><path class="cls-1" d="M554.44,629.4a286.71,286.71,0,0,1-174.29,58.83C221.22,688.23,91.92,558.93,91.92,400s129.3-288.23,288.23-288.23c144.81,0,265,107.35,285.22,246.64L702,362.84a324,324,0,0,0-551-191.94A324,324,0,0,0,574.71,659.13Z"/><path class="cls-1" d="M687.53,406.28A19.5,19.5,0,0,1,675,401.69L571.53,314.35a19.46,19.46,0,0,1,25.11-29.74l86.28,72.85,60.21-96.35a19.46,19.46,0,0,1,33,20.63L704,397.13A19.42,19.42,0,0,1,690.54,406,19.09,19.09,0,0,1,687.53,406.28Z"/><path class="cls-1" d="M379.1,366.86a19.43,19.43,0,0,1-13.39-5.33l-101-95.73a19.46,19.46,0,0,1,26.78-28.25l87.67,83.1,88.65-83.17a19.46,19.46,0,1,1,26.63,28.39l-102,95.73A19.4,19.4,0,0,1,379.1,366.86Z"/><path class="cls-1" d="M380.15,594.08a19.46,19.46,0,0,1-19.46-19.46V344.25a19.46,19.46,0,0,1,38.92,0V574.62A19.46,19.46,0,0,1,380.15,594.08Z"/><path class="cls-1" d="M502.18,395.27H267.59a19.47,19.47,0,0,1,0-38.93H502.18a19.47,19.47,0,0,1,0,38.93Z"/><path class="cls-1" d="M502.18,483.63H267.59a19.46,19.46,0,1,1,0-38.92H502.18a19.46,19.46,0,0,1,0,38.92Z"/></g></svg>